<svg width="16" height="20" viewBox="0 0 16 20" fill="none" xmlns="http://www.w3.org/2000/svg">
<path fill-rule="evenodd" clip-rule="evenodd" d="M15.74 6.33018L10.3 0.330184C10.1109 0.120705 9.84218 0.000850742 9.56 0.000183742H2.56C1.16282 -0.0164819 0.0166742 1.10264 4.21806e-06 2.49982C5.61574e-06 2.49971 2.8037e-06 2.49994 4.21806e-06 2.49982L0 17.5002C0.0164662 18.8974 1.16246 20.0167 2.55964 20.0002C2.55952 20.0002 2.55976 20.0002 2.55964 20.0002L13.44 20.0002C14.8372 20.0168 15.9833 18.8977 16 17.5005C16 17.5007 16 17.5004 16 17.5005L16 7.00018C15.9994 6.75234 15.9067 6.51358 15.74 6.33018ZM13.6487 7.00024H9.70871C9.27981 6.95801 8.96391 6.57981 8.99871 6.15024V2.00024H9.10871L13.6487 7.00024ZM13.44 18.0002H2.56C2.26779 18.0172 2.01711 17.7941 2.0001 17.5019C2.00007 17.5013 2.00004 17.5007 2 17.5002V2.50018C2.01608 2.20791 2.26604 1.98401 2.55831 2.00009C2.55887 2.00012 2.55944 2.00015 2.56 2.00018H7V6.15018C6.9664 7.68358 8.17686 8.95658 9.71 9.00019H14V17.5002C13.9839 17.7925 13.734 18.0164 13.4417 18.0003C13.4411 18.0003 13.4406 18.0002 13.44 18.0002Z" fill="white"/>
</svg>
