<svg width="20" height="18" viewBox="0 0 20 18" fill="none" xmlns="http://www.w3.org/2000/svg">
<path fill-rule="evenodd" clip-rule="evenodd" d="M17.5 17.5002H2.5C1.13967 17.5169 0.02193 16.4305 0 15.0702V2.93019C0.0219256 1.56993 1.13966 0.4835 2.49999 0.50019H7.09999C7.39907 0.502168 7.68157 0.637913 7.86999 0.87019L10.47 4.05019H17.47C18.8337 4.01688 19.9663 5.0954 19.9996 6.45914C19.9997 6.46616 19.9999 6.47318 20 6.48019V15.0702C19.9781 16.4305 18.8603 17.5169 17.5 17.5002ZM2 15.0702C2.01556 15.3238 2.23374 15.5167 2.48732 15.5011C2.49155 15.5009 2.49578 15.5006 2.5 15.5002H17.5C17.753 15.5228 17.9765 15.3359 17.999 15.0829C17.9994 15.0787 17.9997 15.0744 18 15.0702V6.48019C17.9844 6.22662 17.7663 6.03368 17.5127 6.04924C17.5084 6.0495 17.5042 6.04982 17.5 6.05019H10C9.70092 6.04822 9.41842 5.91247 9.23 5.68019L6.63 2.50019H2.5C2.24695 2.47763 2.02352 2.66446 2.00095 2.91751C2.00058 2.92173 2.00026 2.92596 2 2.93019V15.0702Z" fill="white"/>
</svg>
