<?xml version="1.0" standalone="no"?>
<!DOCTYPE svg PUBLIC "-//W3C//DTD SVG 20010904//EN"
 "http://www.w3.org/TR/2001/REC-SVG-20010904/DTD/svg10.dtd">
<svg version="1.0" xmlns="http://www.w3.org/2000/svg"
 width="400.000000pt" height="400.000000pt" viewBox="0 0 400.000000 400.000000"
 preserveAspectRatio="xMidYMid meet">

<g transform="translate(0.000000,400.000000) scale(0.100000,-0.100000)"
fill="#000000" stroke="none">
<path d="M1668 3643 c-48 -30 -68 -88 -68 -194 0 -52 5 -112 11 -134 6 -22 15
-68 19 -103 5 -35 13 -68 16 -74 13 -20 33 -244 49 -552 16 -291 16 -299 -2
-318 -17 -16 -40 -19 -174 -24 -321 -10 -546 -57 -877 -182 -160 -61 -402
-229 -402 -280 0 -32 35 -66 89 -86 55 -19 106 -19 301 2 52 6 214 16 359 23
206 10 288 10 371 1 58 -7 161 -12 227 -12 87 0 124 -4 130 -12 4 -7 11 -92
15 -188 8 -218 19 -309 58 -470 6 -25 15 -61 20 -80 23 -96 104 -286 167 -392
15 -25 41 -68 57 -95 69 -115 149 -151 223 -101 41 29 82 103 96 176 6 33 13
282 16 582 4 289 8 527 9 529 1 2 44 0 95 -3 50 -4 157 -2 237 4 374 28 373
27 555 66 126 27 196 49 329 105 113 47 136 69 136 129 0 43 -4 51 -36 80 -41
35 -135 80 -170 80 -12 0 -35 5 -49 10 -15 6 -106 14 -203 20 -97 5 -235 14
-307 20 -362 30 -503 40 -536 40 -20 0 -41 6 -47 13 -6 6 -12 41 -15 77 -11
139 -28 276 -37 304 -6 16 -10 43 -10 60 0 31 -27 149 -50 222 -82 256 -205
471 -372 649 -113 121 -167 147 -230 108z m152 -275 c92 -104 135 -160 181
-238 44 -73 119 -237 119 -259 0 -6 4 -19 9 -29 39 -70 92 -376 95 -537 l1
-70 -170 4 c-93 2 -175 7 -181 12 -7 6 -16 85 -23 197 -32 507 -42 602 -101
895 -11 58 -9 87 7 87 5 0 33 -28 63 -62z m-126 -1244 c14 -5 16 -28 16 -151
l0 -146 -147 7 c-383 16 -484 18 -603 7 -69 -7 -181 -16 -250 -21 -69 -5 -135
-12 -146 -15 -50 -15 -32 27 26 62 55 33 197 104 228 113 15 5 52 18 82 30 86
33 270 79 362 90 45 6 101 14 123 19 47 10 286 14 309 5z m449 -15 l87 -13 0
-148 c0 -130 -2 -149 -17 -155 -26 -10 -323 14 -339 28 -19 16 -21 294 -1 303
17 8 166 0 270 -15z m542 -39 c105 -6 220 -15 257 -20 37 -6 136 -10 221 -10
291 0 450 -55 317 -110 -248 -102 -350 -124 -660 -145 -236 -15 -425 -9 -441
15 -12 18 -8 259 5 279 6 10 22 12 60 7 28 -3 137 -11 241 -16z m-467 -396
l22 -4 0 -239 c0 -131 -3 -374 -7 -541 -6 -281 -8 -305 -25 -322 -19 -19 -20
-19 -40 -2 -23 21 -123 189 -145 243 -8 20 -20 50 -28 66 -42 93 -81 238 -95
350 -5 39 -14 88 -19 110 -13 53 -22 315 -11 335 7 13 32 15 167 12 87 -1 168
-5 181 -8z"/>
</g>
</svg>
